<?xml version="1.0" encoding="UTF-8"?>
<svg xmlns="http://www.w3.org/2000/svg" viewBox="156 184 712 752">
  

  <defs>
    <mask id="cutouts" maskUnits="userSpaceOnUse" x="156" y="184" width="712" height="752">
      <rect x="156" y="184" width="712" height="752" fill="#fff"></rect>
      
      <circle cx="512" cy="582" r="36" fill="#000"></circle>
      
      <circle cx="512" cy="403" r="8" fill="#000"></circle>
    </mask>
  </defs>

  <g mask="url(#cutouts)">
    
    <path d="M 332 380 L 332 290 Q 332 215 512 215 Q 692 215 692 290 L 692 380" fill="none" stroke="#000" stroke-width="40" stroke-linecap="round"></path>

    
    <path d="M 170 400 Q 170 360 210 360 L 814 360 Q 854 360 854 400 L 854 820 Q 854 860 814 860 L 210 860 Q 170 860 170 820 Z" fill="none" stroke="#000" stroke-width="22" stroke-linejoin="round"></path>

    
    <line x1="190" y1="430" x2="834" y2="430" stroke="#000" stroke-width="14"></line>

    
    <rect x="468" y="372" width="88" height="58" rx="8" fill="#000"></rect>

    
    <g transform="translate(512 582)">
      <g fill="#000">
      <rect x="-22" y="-114" width="44" height="44" rx="5" transform="rotate(0)"></rect>
      <rect x="-22" y="-114" width="44" height="44" rx="5" transform="rotate(45)"></rect>
      <rect x="-22" y="-114" width="44" height="44" rx="5" transform="rotate(90)"></rect>
      <rect x="-22" y="-114" width="44" height="44" rx="5" transform="rotate(135)"></rect>
      <rect x="-22" y="-114" width="44" height="44" rx="5" transform="rotate(180)"></rect>
      <rect x="-22" y="-114" width="44" height="44" rx="5" transform="rotate(225)"></rect>
      <rect x="-22" y="-114" width="44" height="44" rx="5" transform="rotate(270)"></rect>
      <rect x="-22" y="-114" width="44" height="44" rx="5" transform="rotate(315)"></rect>
        <circle r="92"></circle>
      </g>
    </g>

    
    <text x="512" y="784" text-anchor="middle" dominant-baseline="middle" fill="#000" font-family="Helvetica, Arial, sans-serif" font-weight="800" font-size="108" letter-spacing="4">S(C)T</text>
  </g>
</svg>