<?xml version="1.0" encoding="UTF-8"?>
<svg xmlns="http://www.w3.org/2000/svg" viewBox="156 184 712 752">
  <defs>
    <linearGradient id="bodyTop3" x1="0" y1="0" x2="0" y2="1">
      <stop offset="0" stop-color="#6E7BA8"></stop>
      <stop offset="1" stop-color="#5A6691"></stop>
    </linearGradient>
    <linearGradient id="bodyFront3" x1="0" y1="0" x2="0" y2="1">
      <stop offset="0" stop-color="#4E5984"></stop>
      <stop offset="1" stop-color="#3A4368"></stop>
    </linearGradient>
    <linearGradient id="gearTop" x1="0" y1="0" x2="0" y2="1">
      <stop offset="0" stop-color="#FFFBF0"></stop>
      <stop offset="1" stop-color="#E6D2A8"></stop>
    </linearGradient>
    <linearGradient id="gearSide" x1="0" y1="0" x2="0" y2="1">
      <stop offset="0" stop-color="#C9B581"></stop>
      <stop offset="1" stop-color="#8E7A4E"></stop>
    </linearGradient>
    <radialGradient id="groundShadow" cx="0.5" cy="0.5" r="0.5">
      <stop offset="0" stop-color="#000" stop-opacity="0.55"></stop>
      <stop offset="1" stop-color="#000" stop-opacity="0"></stop>
    </radialGradient>
    <radialGradient id="gearShadow" cx="0.5" cy="0.5" r="0.5">
      <stop offset="0" stop-color="#000" stop-opacity="0.55"></stop>
      <stop offset="1" stop-color="#000" stop-opacity="0"></stop>
    </radialGradient>
    <filter id="softBlur" x="-20%" y="-20%" width="140%" height="140%">
      <feGaussianBlur stdDeviation="6"></feGaussianBlur>
    </filter>
  </defs>

  
  <ellipse cx="512" cy="900" rx="340" ry="28" fill="url(#groundShadow)"></ellipse>

  
  <path d="M 332 380 L 332 290 Q 332 215 512 215 Q 692 215 692 290 L 692 380" fill="none" stroke="#E6D2A8" stroke-width="50" stroke-linecap="round"></path>
  <path d="M 332 380 L 332 290 Q 332 215 512 215 Q 692 215 692 290 L 692 380" fill="none" stroke="#1F2240" stroke-width="8" stroke-linecap="round"></path>
  <path d="M 348 360 L 348 295 Q 348 230 512 230 Q 676 230 676 295 L 676 320" fill="none" stroke="#FFFFFF" stroke-opacity="0.4" stroke-width="10" stroke-linecap="round"></path>

  
  <path d="M 170 400 L 854 400 L 854 820 Q 854 860 814 860 L 210 860 Q 170 860 170 820 Z" fill="url(#bodyFront3)"></path>
  
  <path d="M 170 400 Q 170 360 210 360 L 814 360 Q 854 360 854 400 L 824 426 L 200 426 Z" fill="url(#bodyTop3)"></path>
  
  <path d="M 170 400 Q 170 360 210 360 L 814 360 Q 854 360 854 400 L 854 820 Q 854 860 814 860 L 210 860 Q 170 860 170 820 Z" fill="none" stroke="#1F2240" stroke-width="10"></path>
  <line x1="180" y1="426" x2="844" y2="426" stroke="#000" stroke-opacity="0.45" stroke-width="3"></line>
  <path d="M 188 408 Q 188 376 220 376 L 460 376" fill="none" stroke="#FFFFFF" stroke-opacity="0.28" stroke-width="6" stroke-linecap="round"></path>

  
  <rect x="468" y="372" width="88" height="58" rx="8" fill="#E6D2A8" stroke="#1F2240" stroke-width="6"></rect>
  <rect x="468" y="372" width="88" height="14" rx="8" fill="#FFFBF0"></rect>
  <circle cx="512" cy="403" r="10" fill="#1F2240"></circle>

  
  <g stroke="#F0C868" stroke-width="6" fill="none" stroke-linecap="round" stroke-linejoin="round">
    <path d="M 210 510 L 310 510 L 310 600 L 410 600"></path>
    <path d="M 600 720 L 720 720 L 720 600 L 810 600"></path>
    <path d="M 230 770 L 360 770"></path>
    <path d="M 690 470 L 770 470 L 770 510"></path>
  </g>
  <g fill="#F0C868">
    <circle cx="310" cy="510" r="8"></circle>
    <circle cx="410" cy="600" r="8"></circle>
    <circle cx="720" cy="600" r="8"></circle>
    <circle cx="770" cy="470" r="6"></circle>
    <circle cx="360" cy="770" r="6"></circle>
  </g>
  <g stroke="#F0C868" stroke-width="14" fill="none" stroke-linecap="round" opacity="0.22" filter="url(#softBlur)">
    <path d="M 210 510 L 310 510 L 310 600 L 410 600"></path>
    <path d="M 600 720 L 720 720 L 720 600 L 810 600"></path>
  </g>

  
  <g transform="translate(528 628)">
    <ellipse cx="0" cy="40" rx="150" ry="36" fill="url(#gearShadow)"></ellipse>
  </g>

  
  <g transform="translate(512 600)">
    <rect x="-22" y="-110" width="44" height="42" rx="5" transform="rotate(0) translate(0 22)" fill="url(#gearSide)" stroke="#1F2240" stroke-width="6"></rect>
    <rect x="-22" y="-110" width="44" height="42" rx="5" transform="rotate(45) translate(0 22)" fill="url(#gearSide)" stroke="#1F2240" stroke-width="6"></rect>
    <rect x="-22" y="-110" width="44" height="42" rx="5" transform="rotate(90) translate(0 22)" fill="url(#gearSide)" stroke="#1F2240" stroke-width="6"></rect>
    <rect x="-22" y="-110" width="44" height="42" rx="5" transform="rotate(135) translate(0 22)" fill="url(#gearSide)" stroke="#1F2240" stroke-width="6"></rect>
    <rect x="-22" y="-110" width="44" height="42" rx="5" transform="rotate(180) translate(0 22)" fill="url(#gearSide)" stroke="#1F2240" stroke-width="6"></rect>
    <rect x="-22" y="-110" width="44" height="42" rx="5" transform="rotate(225) translate(0 22)" fill="url(#gearSide)" stroke="#1F2240" stroke-width="6"></rect>
    <rect x="-22" y="-110" width="44" height="42" rx="5" transform="rotate(270) translate(0 22)" fill="url(#gearSide)" stroke="#1F2240" stroke-width="6"></rect>
    <rect x="-22" y="-110" width="44" height="42" rx="5" transform="rotate(315) translate(0 22)" fill="url(#gearSide)" stroke="#1F2240" stroke-width="6"></rect>
    <ellipse cx="0" cy="22" rx="92" ry="22" fill="url(#gearSide)" stroke="#1F2240" stroke-width="6"></ellipse>
  </g>

  
  <g transform="translate(512 582)">
    <g fill="url(#gearTop)" stroke="#1F2240" stroke-width="6">
      <rect x="-22" y="-114" width="44" height="44" rx="5" transform="rotate(0)"></rect>
      <rect x="-22" y="-114" width="44" height="44" rx="5" transform="rotate(45)"></rect>
      <rect x="-22" y="-114" width="44" height="44" rx="5" transform="rotate(90)"></rect>
      <rect x="-22" y="-114" width="44" height="44" rx="5" transform="rotate(135)"></rect>
      <rect x="-22" y="-114" width="44" height="44" rx="5" transform="rotate(180)"></rect>
      <rect x="-22" y="-114" width="44" height="44" rx="5" transform="rotate(225)"></rect>
      <rect x="-22" y="-114" width="44" height="44" rx="5" transform="rotate(270)"></rect>
      <rect x="-22" y="-114" width="44" height="44" rx="5" transform="rotate(315)"></rect>
      <circle r="92"></circle>
    </g>
    <path d="M -70 -50 Q 0 -90 70 -50" fill="none" stroke="#FFFFFF" stroke-opacity="0.6" stroke-width="8" stroke-linecap="round"></path>
    <circle r="38" fill="#3A4368" stroke="#1F2240" stroke-width="6"></circle>
    <circle r="38" fill="none" stroke="#FFFFFF" stroke-opacity="0.22" stroke-width="3" transform="translate(-2 -2)"></circle>
    <circle r="14" fill="#1F2240"></circle>
  </g>

  
  <g stroke="#F0C868" stroke-width="6" fill="none" stroke-linecap="round" stroke-linejoin="round">
    <path d="M 230 784 L 360 784 L 400 754 L 640 754 L 680 784 L 800 784"></path>
  </g>
  <g fill="#F0C868">
    <circle cx="360" cy="784" r="7"></circle>
    <circle cx="680" cy="784" r="7"></circle>
  </g>
  <g stroke="#F0C868" stroke-width="14" fill="none" stroke-linecap="round" opacity="0.22" filter="url(#softBlur)">
    <path d="M 230 784 L 360 784 L 400 754 L 640 754 L 680 784 L 800 784"></path>
  </g>

  
  <text x="514" y="786" text-anchor="middle" dominant-baseline="middle" fill="none" stroke="#000" stroke-opacity="0.55" stroke-width="6" stroke-linejoin="round" font-family="Helvetica, Arial, sans-serif" font-weight="800" font-size="96" letter-spacing="4">S(C)T</text>
  <text x="510" y="782" text-anchor="middle" dominant-baseline="middle" fill="none" stroke="#FFFFFF" stroke-opacity="0.32" stroke-width="5" stroke-linejoin="round" font-family="Helvetica, Arial, sans-serif" font-weight="800" font-size="96" letter-spacing="4">S(C)T</text>
  <text x="512" y="784" text-anchor="middle" dominant-baseline="middle" fill="none" stroke="#1F2240" stroke-opacity="0.5" stroke-width="3" stroke-linejoin="round" font-family="Helvetica, Arial, sans-serif" font-weight="800" font-size="96" letter-spacing="4">S(C)T</text>
</svg>