<?xml version="1.0" encoding="UTF-8"?>
<svg xmlns="http://www.w3.org/2000/svg" viewBox="0 0 500 500">
  <defs>
    <linearGradient id="panel" x1="0" y1="0" x2="1" y2="1">
      <stop offset="0" stop-color="#f8fbff"/>
      <stop offset="1" stop-color="#dfe6ff"/>
    </linearGradient>
    <linearGradient id="output" x1="0" y1="0" x2="1" y2="1">
      <stop offset="0" stop-color="#7b61ff"/>
      <stop offset="1" stop-color="#3c2fb4"/>
    </linearGradient>
    <filter id="shadow" x="-20%" y="-20%" width="140%" height="160%">
      <feDropShadow dx="0" dy="12" stdDeviation="12" flood-color="#142258" flood-opacity=".22"/>
    </filter>
  </defs>
  <g filter="url(#shadow)">
    <rect x="58" y="48" width="384" height="384" rx="86" fill="url(#panel)" stroke="#b9c5f7" stroke-width="8"/>
    <path d="M132 150h76c34 0 45 24 45 58v84c0 34 12 58 46 58h50" fill="none" stroke="#6877c9" stroke-width="15" stroke-linecap="round"/>
    <path d="M132 250h121" fill="none" stroke="#6877c9" stroke-width="15" stroke-linecap="round"/>
    <path d="M132 350h76c34 0 45-24 45-58" fill="none" stroke="#6877c9" stroke-width="15" stroke-linecap="round"/>
    <circle cx="113" cy="150" r="39" fill="#59c3ff" stroke="#fff" stroke-width="9"/>
    <circle cx="113" cy="250" r="39" fill="#ffbe4b" stroke="#fff" stroke-width="9"/>
    <circle cx="113" cy="350" r="39" fill="#f2678d" stroke="#fff" stroke-width="9"/>
    <circle cx="377" cy="350" r="60" fill="url(#output)" stroke="#fff" stroke-width="10"/>
    <path d="M356 322h43l-28 29 28 29h-43" fill="none" stroke="#fff" stroke-width="12" stroke-linecap="round" stroke-linejoin="round"/>
    <circle cx="113" cy="150" r="12" fill="#fff" opacity=".9"/>
    <path d="M96 261h34M113 233v34" stroke="#fff" stroke-width="10" stroke-linecap="round"/>
    <path d="M97 350l11 11 22-24" fill="none" stroke="#fff" stroke-width="10" stroke-linecap="round" stroke-linejoin="round"/>
  </g>
</svg>
